# xmcd
#
# Track frame offsets: 
#        150
#        15893
#        37833
#        55725
#        73460
#        97383
#        113025
#        133298
#        151983
#        170328
#        190058
#        206375
#
# Disc length: 2999 seconds
#
# Revision: 0
# Processed by: cddbd v1.5.2PL0 Copyright (c) Steve Scherf et al.
# Submitted via: ExactAudioCopyFreeDBPlugin 1.0
#
DISCID=a00bb50c
DTITLE=Various Artist - 暖火1990 
DYEAR=1990
DGENRE=Pop
TTITLE0=問候／黎瑞恩
TTITLE1=美麗的謊言／蔡濟文
TTITLE2=第四者／Echo
TTITLE3=想哭／林保怡
TTITLE4=愛是無涯／劉美君
TTITLE5=媽媽我沒有做錯／夏韶聲
TTITLE6=花事了／新青年
TTITLE7=愛這個字／鄭瑞芬
TTITLE8=眼淚卻流在今天／Fundamental
TTITLE9=愛在思念蔓延時／曾路德
TTITLE10=Don't you know me by now／齊成
TTITLE11=暖火／大合唱
EXTD=
EXTT0=
EXTT1=
EXTT2=
EXTT3=
EXTT4=
EXTT5=
EXTT6=
EXTT7=
EXTT8=
EXTT9=
EXTT10=
EXTT11=
PLAYORDER=
